<?xml version="1.0" encoding="UTF-8"?>
<!DOCTYPE svg PUBLIC "-//W3C//DTD SVG 1.1//EN" "http://www.w3.org/Graphics/SVG/1.1/DTD/svg11.dtd">
<!-- Creator: CorelDRAW 2020 (64-Bit) -->
<svg xmlns="http://www.w3.org/2000/svg" xml:space="preserve" width="512px" height="512px" version="1.1" shape-rendering="geometricPrecision" text-rendering="geometricPrecision" image-rendering="optimizeQuality" fill-rule="evenodd" clip-rule="evenodd"
viewBox="0 0 512 512"
 xmlns:xlink="http://www.w3.org/1999/xlink"
 xmlns:xodm="http://www.corel.com/coreldraw/odm/2003">
 <g id="Capa_x0020_1">
  <metadata id="CorelCorpID_0Corel-Layer"/>
  <path fill="maroon" d="M1 155.98c0,28.18 15.92,38.92 22,48 -2.31,3.44 -5.38,5.53 -8.25,8.75 -9.79,11.01 -14.6,25.75 -14.75,40.41l0 1.49c0.21,18.87 8.11,37.37 23,47.35 -4.48,6.68 -10.71,11.36 -15.07,18.92 -11.03,19.13 -9.97,46.91 2.05,65.09 16.19,24.5 42.3,28.23 68.15,36.86l95.49 30.5c17.9,5.98 30.87,11.03 51.33,9.58 10.09,-0.71 230.74,-52.74 256.63,-58.38 5.48,-1.19 11.78,-3.45 17.42,-3.58 0,-5.33 -2.41,-15.35 -3.98,-19.02 -7.22,-16.94 -27.88,-7.91 -44.01,-3.96l-88.76 20.24c-38.99,8.29 -78.28,18.63 -118,26.99 -8.39,1.77 -20.05,5.77 -30.68,4.2 -25.72,-3.81 -58.75,-15.92 -84.45,-24.57 -16.04,-5.4 -69.41,-20.47 -81.82,-27.18 -25.3,-13.67 -14.66,-55.69 11.7,-55.69 15.47,0 28.2,6.11 42.64,10.36l72.24 22.76c15.45,5.2 28.05,9.87 45.12,9.87 15.06,0 54.06,-11.4 71.08,-14.91l104.91 -24.1c11.58,-2.83 23.45,-5.17 35,-8 11.64,-2.85 23.33,-5.22 35.01,-7.98l26 -6.01c2.27,-0.52 8,-0.8 8,-2.99 0,-3.57 -2.93,-15.1 -4.15,-17.86 -6.12,-13.83 -19.28,-8.88 -31.1,-6.39 -55.78,11.74 -111.04,26.64 -166.83,38.16 -12.84,2.65 -63.21,16.09 -74.92,16.09 -28.31,0 -33.9,-6.87 -60,-14 -31.89,-8.73 -63.83,-21.62 -95.42,-30.58 -7.6,-2.16 -16.8,-4.73 -22.2,-8.81 -22.37,-16.91 -10.31,-54.61 18.62,-54.61 9.1,0 115.19,35.2 129.86,40.13 3.97,1.33 8.37,2.66 13.53,3.47 21.08,3.31 51.56,-6.55 72,-11.21l166.82 -38.18c7.63,-1.81 49.77,-10.32 55.79,-13.21 -6.9,-29.62 -9.65,-31.26 -35.21,-25.21l-103.21 23.78c-39.83,8.69 -79.11,18.8 -118.83,27.18 -26.58,5.61 -34.67,4.43 -59.62,-3.88 -11.84,-3.95 -129.51,-39.78 -136.88,-45.13 -24.55,-17.82 -11.58,-55.74 16.75,-55.74 10.48,0 23.34,6.61 33.13,9.87 21.87,7.29 43.87,13.39 65.16,21.83 40.44,16.04 90.95,3.79 131.1,-6.31 12.31,-3.09 23.53,-5.16 36,-8 48.27,-11.01 97.29,-20.87 145.53,-30.48 7.31,-1.45 32.01,-5.48 37.08,-7.91 -0.24,-10.76 -5.13,-21.51 -6,-32 -12.6,0 -22.7,-2.57 -34.7,-4.3l-105.13 -14.88c-61.78,-8.83 -84.24,-1.76 -139.92,9.43 -43.92,8.82 -88.84,17.06 -133.16,25.84l-25.22 4.78c-13.63,1.42 -22.71,-0.24 -39.03,10.96 -14.32,9.82 -27.84,28.38 -27.84,52.17z"/>
 </g>
</svg>
