<?xml version="1.0" encoding="UTF-8"?>
<!DOCTYPE svg PUBLIC "-//W3C//DTD SVG 1.1//EN" "http://www.w3.org/Graphics/SVG/1.1/DTD/svg11.dtd">
<!-- Creator: CorelDRAW 2020 (64-Bit) -->
<svg xmlns="http://www.w3.org/2000/svg" xml:space="preserve" width="1793px" height="512px" version="1.1" shape-rendering="geometricPrecision" text-rendering="geometricPrecision" image-rendering="optimizeQuality" fill-rule="evenodd" clip-rule="evenodd"
viewBox="0 0 1793 512"
 xmlns:xlink="http://www.w3.org/1999/xlink"
 xmlns:xodm="http://www.corel.com/coreldraw/odm/2003">
 <g id="Capa_x0020_1">
  <metadata id="CorelCorpID_0Corel-Layer"/>
  <g id="_2282912991408">
   <path fill="black" fill-rule="nonzero" d="M826.11 230.75l48.09 0c27.16,0 46.66,-4 58.33,-12.08 11.75,-8.09 17.58,-21.34 17.58,-39.92 0,-18.58 -5.33,-31.83 -16.08,-39.92 -10.75,-8.08 -28.92,-12.08 -54.5,-12.08l-53.42 0 0 104zm0 155.5l55.42 0c28.67,0 49.08,-4.58 61.25,-13.67 12.25,-9.16 18.33,-24.16 18.33,-45.16 0,-21 -6.33,-36 -18.91,-44.84 -12.59,-8.91 -34.34,-13.33 -65.09,-13.33l-51 0 0 117zm-123 37.5l0 -38 19.5 0c14.84,0 24.09,-1.75 27.67,-5.25 3.58,-3.5 5.33,-12.08 5.33,-25.75l0 -197.5c0,-13.67 -1.75,-22.25 -5.33,-25.75 -3.58,-3.5 -12.83,-5.25 -27.67,-5.25l-19.5 0 0 -38 193.59 0c41.91,0 73.08,6.83 93.41,20.5 20.34,13.75 30.5,34.75 30.5,63.08 0,19.5 -5.5,35.34 -16.5,47.25 -10.91,12 -28,20.92 -51.08,26.75 27.17,5.59 47.5,15.5 60.92,29.84 13.41,14.25 20.16,33.33 20.16,57.08 0,32.67 -11.16,56 -33.41,70 -22.34,14 -60.17,21 -113.59,21l-184 0zm459.6 0l0 -38 21.5 0c14.84,0 24.09,-1.75 27.67,-5.25 3.58,-3.5 5.33,-12.08 5.33,-25.75l0 -197.5c0,-13.67 -1.75,-22.25 -5.33,-25.75 -3.58,-3.5 -12.83,-5.25 -27.67,-5.25l-21.5 0 0 -38 181 0 0 38 -21.41 0c-14.92,0 -24.17,1.75 -27.75,5.25 -3.59,3.5 -5.34,12.08 -5.34,25.75l0 197.5c0,13.67 1.75,22.25 5.34,25.75 3.58,3.5 12.83,5.25 27.75,5.25l21.41 0 0 38 -181 0zm421.69 -193l48.08 0c27.17,0 46.67,-4 58.33,-12.08 11.75,-8.09 17.59,-21.34 17.59,-39.92 0,-18.58 -5.34,-31.83 -16.09,-39.92 -10.75,-8.08 -28.91,-12.08 -54.5,-12.08l-53.41 0 0 104zm0 155.5l55.41 0c28.67,0 49.09,-4.58 61.25,-13.67 12.25,-9.16 18.34,-24.16 18.34,-45.16 0,-21 -6.34,-36 -18.92,-44.84 -12.58,-8.91 -34.33,-13.33 -65.08,-13.33l-51 0 0 117zm-123 37.5l0 -38 19.5 0c14.83,0 24.08,-1.75 27.66,-5.25 3.59,-3.5 5.34,-12.08 5.34,-25.75l0 -197.5c0,-13.67 -1.75,-22.25 -5.34,-25.75 -3.58,-3.5 -12.83,-5.25 -27.66,-5.25l-19.5 0 0 -38 193.58 0c41.92,0 73.08,6.83 93.42,20.5 20.33,13.75 30.5,34.75 30.5,63.08 0,19.5 -5.5,35.34 -16.5,47.25 -10.92,12 -28,20.92 -51.09,26.75 27.17,5.59 47.5,15.5 60.92,29.84 13.42,14.25 20.17,33.33 20.17,57.08 0,32.67 -11.17,56 -33.42,70 -22.33,14 -60.17,21 -113.58,21l-184 0z"/>
   <path fill="maroon" d="M0.74 132.41c0,34.82 19.67,48.09 27.18,59.31 -2.85,4.25 -6.64,6.83 -10.19,10.81 -12.1,13.6 -18.04,31.82 -18.23,49.93l0 1.85c0.25,23.31 10.02,46.18 28.42,58.5 -5.53,8.26 -13.24,14.04 -18.62,23.39 -13.62,23.63 -12.31,57.95 2.53,80.42 20.01,30.28 52.27,34.88 84.21,45.54l117.99 37.7c22.12,7.38 38.15,13.62 63.43,11.83 12.46,-0.88 285.11,-65.17 317.1,-72.13 6.77,-1.48 14.55,-4.27 21.52,-4.42 0,-6.6 -2.98,-18.97 -4.91,-23.51 -8.92,-20.93 -34.45,-9.78 -54.38,-4.9l-109.68 25.01c-48.18,10.24 -96.73,23.03 -145.81,33.36 -10.36,2.18 -24.77,7.13 -37.9,5.18 -31.78,-4.7 -72.6,-19.67 -104.35,-30.35 -19.82,-6.67 -85.76,-25.3 -101.1,-33.59 -31.27,-16.89 -18.12,-68.82 14.45,-68.82 19.11,0 34.84,7.55 52.69,12.8l89.26 28.13c19.1,6.43 34.66,12.2 55.75,12.2 18.61,0 66.8,-14.09 87.84,-18.43l129.62 -29.77c14.31,-3.5 28.98,-6.39 43.25,-9.88 14.38,-3.53 28.83,-6.46 43.26,-9.88l32.13 -7.41c2.8,-0.65 9.88,-0.99 9.88,-3.71 0,-4.4 -3.62,-18.65 -5.12,-22.05 -7.57,-17.1 -23.83,-10.98 -38.43,-7.91 -68.93,14.51 -137.21,32.93 -206.15,47.16 -15.86,3.28 -78.1,19.87 -92.57,19.87 -34.98,0 -41.88,-8.48 -74.14,-17.3 -39.4,-10.77 -78.87,-26.71 -117.9,-37.78 -9.39,-2.66 -20.76,-5.85 -27.43,-10.88 -27.64,-20.9 -12.75,-67.49 23,-67.49 11.25,0 142.34,43.5 160.47,49.59 4.91,1.65 10.33,3.3 16.72,4.3 26.04,4.08 63.7,-8.1 88.96,-13.86l206.13 -47.18c9.42,-2.23 61.49,-12.75 68.93,-16.32 -8.52,-36.6 -11.92,-38.63 -43.5,-31.15l-127.53 29.39c-49.22,10.73 -97.76,23.22 -146.83,33.58 -32.85,6.93 -42.84,5.48 -73.68,-4.8 -14.62,-4.87 -160.02,-49.15 -169.12,-55.76 -30.34,-22.02 -14.31,-68.88 20.69,-68.88 12.95,0 28.84,8.17 40.93,12.2 27.04,9.01 54.22,16.55 80.53,26.98 49.96,19.81 112.37,4.67 161.99,-7.8 15.21,-3.82 29.06,-6.38 44.48,-9.89 59.65,-13.61 120.21,-25.79 179.81,-37.65 9.04,-1.8 39.57,-6.78 45.83,-9.79 -0.3,-13.28 -6.34,-26.58 -7.42,-39.54 -15.57,0 -28.05,-3.17 -42.87,-5.31l-129.9 -18.38c-76.35,-10.91 -104.09,-2.18 -172.9,11.64 -54.26,10.91 -109.77,21.09 -164.53,31.94l-31.16 5.91c-16.85,1.74 -28.06,-0.3 -48.24,13.54 -17.69,12.14 -34.39,35.06 -34.39,64.46z"/>
  </g>
 </g>
</svg>
